<svg width="87" height="30" viewBox="0 0 87 30" fill="none" xmlns="http://www.w3.org/2000/svg">
<g clip-path="url(#clip0_2_3)">
<rect width="87" height="30" fill="white"/>
<path fill-rule="evenodd" clip-rule="evenodd" d="M31.5007 10.6244C35.1353 11.2536 37.9359 6.13976 41.4393 7.1259C44.6401 8.02685 45.0748 11.7538 44.9908 14.4216C44.9193 16.6908 41.4185 18.0415 41.0248 20.2902C40.4714 23.4505 45.6321 27.6993 42.3386 29.5687C39.0415 31.4401 35.3738 26.675 31.5007 25.6961C29.2998 25.1399 27.0666 25.3563 24.7726 25.1293C19.5027 24.6079 12.8645 26.6426 9.3659 23.506C6.21534 20.6814 9.30333 16.1484 10.7696 12.5752C12.2397 8.99289 13.0077 3.47667 17.769 3.02864C23.4686 2.49232 25.895 9.6541 31.5007 10.6244Z" fill="#D2FAFF"/>
<path fill-rule="evenodd" clip-rule="evenodd" d="M68.937 22.608C66.3494 25.1343 62.3903 26.8513 58.2677 27.0723C54.5975 27.2691 51.9832 24.3364 48.3923 23.7095C44.4177 23.0157 38.8319 25.882 36.4886 23.2706C34.0942 20.6023 39.8472 17.3307 39.7413 14.069C39.6378 10.881 33.3742 7.73228 35.903 5.23481C38.5291 2.64132 44.0478 5.99401 48.2501 5.66569C50.9041 5.45833 53.0308 4.12966 55.6391 3.69284C60.9504 2.80333 66.917 -0.664629 71.3487 1.79724C75.3829 4.03824 73.0242 9.24107 72.5767 13.1019C72.1853 16.4794 71.6453 19.9638 68.937 22.608Z" fill="#FFF3CA"/>
<path d="M8.696 12.24C9.092 12.276 9.596 12.3 9.596 12.72V17.724L8.324 17.904V18H12.452V17.904L11.612 17.844C11 17.796 10.616 17.772 10.616 17.412V15.264C10.616 13.716 11.384 12.324 12.2 12.324C12.62 12.324 12.968 12.636 13.184 13.896L13.256 14.328H13.364V12.06C13.1 11.964 12.848 11.94 12.596 11.94C11.396 11.94 10.856 12.96 10.604 14.052H10.556V11.94L8.048 12.108V12.216L8.696 12.24ZM17.7334 11.94C15.5734 11.94 14.2294 13.26 14.2294 15.024C14.2294 16.8 15.5734 18.12 17.7454 18.12C18.8014 18.12 19.8814 17.808 20.5534 17.184V15.708H20.4454L20.3734 16.14C20.1574 17.436 19.1614 17.988 17.9494 17.988C16.0294 17.988 15.2854 16.464 15.2854 15.024C15.2854 14.904 15.2854 14.784 15.2974 14.664H20.6374V14.304C20.6374 12.936 19.5094 11.94 17.7334 11.94ZM15.3094 14.532C15.4534 13.284 16.1734 12.06 17.6614 12.06C18.9454 12.06 19.6894 13.044 19.6894 14.172C19.6894 14.448 19.5454 14.532 19.2214 14.532H15.3094ZM21.7802 12.24C22.1642 12.264 22.6802 12.288 22.6802 12.708V17.724L21.4202 17.904V18H25.3202V17.904L24.6002 17.844C24.1322 17.796 23.7242 17.736 23.7242 17.448L23.7122 14.448C23.7122 13.824 23.8682 13.344 24.1442 12.996C24.6122 12.396 25.4042 12.132 26.0882 12.132C27.2402 12.132 27.9962 12.744 27.9962 13.956V17.724L26.3762 17.904V18H30.6242V17.904L29.9042 17.844C29.4362 17.796 29.0282 17.748 29.0282 17.436V14.004C29.0282 12.744 30.2762 12.132 31.4042 12.132C32.5442 12.132 33.3002 12.744 33.3002 13.956V17.724L31.6922 17.904V18H35.6042V17.904L35.2202 17.856C34.7282 17.796 34.3322 17.784 34.3322 17.436V14.016C34.3322 12.708 33.2762 11.94 31.7762 11.94C30.6962 11.94 29.5202 12.324 28.8722 13.236C28.5362 12.396 27.6362 11.94 26.4722 11.94C25.3802 11.94 24.3482 12.324 23.7002 13.236H23.6522V11.94L21.1322 12.108V12.204L21.7802 12.24ZM36.2852 12.24C36.6692 12.264 37.1852 12.288 37.1852 12.708V17.724L35.9252 17.904V18H39.8252V17.904L39.1052 17.844C38.6372 17.808 38.2292 17.736 38.2292 17.448L38.2172 14.448C38.2172 13.032 39.1652 12.132 40.5932 12.132C41.7452 12.132 42.5012 12.744 42.5012 13.956V17.724L40.8812 17.904V18H44.7932V17.904L44.4092 17.856C43.9292 17.784 43.5332 17.772 43.5332 17.436V14.016C43.5332 12.708 42.4652 11.94 40.9772 11.94C39.8732 11.94 38.8652 12.336 38.1932 13.236H38.1572V11.94L35.6372 12.108V12.204L36.2852 12.24ZM45.2322 16.452C45.2322 17.316 46.0842 18.12 47.6202 18.12C48.6522 18.12 49.6722 17.724 50.3442 16.92H50.3802V18.12L52.6242 17.964V17.868L52.2282 17.844C51.8442 17.808 51.3402 17.76 51.3402 17.34V14.004C51.3402 12.528 50.0562 11.94 48.4722 11.94C47.3682 11.94 46.3482 12.276 45.7482 12.852V14.292H45.8682L45.9042 14.148C46.1562 13.008 47.0922 12.06 48.3882 12.06C49.4202 12.06 50.3202 12.624 50.3202 13.968V15.228C49.6602 14.82 48.9042 14.64 48.0882 14.64C46.0602 14.64 45.2322 15.6 45.2322 16.452ZM46.2522 16.5C46.2522 15.744 46.7562 14.772 48.2922 14.784C49.0482 14.796 49.7562 14.988 50.3202 15.372V15.876C50.3202 17.22 49.1682 17.916 47.9202 17.916C46.7322 17.916 46.2522 17.28 46.2522 16.5ZM53.2249 12.24C53.6089 12.264 54.1249 12.288 54.1249 12.708V17.724L52.8649 17.904V18H56.7649V17.904L56.0449 17.844C55.5769 17.808 55.1689 17.736 55.1689 17.448L55.1569 14.448C55.1569 13.032 56.1049 12.132 57.5329 12.132C58.6849 12.132 59.4409 12.744 59.4409 13.956V17.724L57.8209 17.904V18H61.7329V17.904L61.3489 17.856C60.8689 17.784 60.4729 17.772 60.4729 17.436V14.016C60.4729 12.708 59.4049 11.94 57.9169 11.94C56.8129 11.94 55.8049 12.336 55.1329 13.236H55.0969V11.94L52.5769 12.108V12.204L53.2249 12.24ZM63.0838 12.228V16.392C63.0838 17.736 63.8878 18.12 64.8238 18.12C65.6398 18.12 66.2518 17.82 66.5998 17.58V15.792H66.4918L66.4078 16.428C66.2638 17.484 65.7838 17.988 65.0398 17.988C64.5118 17.988 64.1038 17.772 64.1038 16.812V12.228H66.4918V12.06H64.1038V10.476H63.9958L63.1318 11.952L61.7518 12.132V12.228H63.0838ZM67.4291 13.596C67.4291 14.748 68.8211 14.892 69.9851 15.108C71.1011 15.324 72.0251 15.6 72.0251 16.584C72.0251 17.46 71.3051 18 70.2251 18C68.8331 18 67.8131 16.884 67.6091 15.984L67.5491 15.744H67.4291V17.232C68.0771 17.796 69.1691 18.12 70.3091 18.12C71.6651 18.12 73.0931 17.64 73.0931 16.464C73.0931 15.288 71.5331 15.18 70.2491 14.904C69.2651 14.688 68.4851 14.328 68.4851 13.464C68.4851 12.588 69.2291 12.06 70.2491 12.06C71.6891 12.06 72.4571 12.624 72.6371 13.74L72.6971 14.136H72.8171V12.696C72.2171 12.168 71.2811 11.94 70.1531 11.94C68.8451 11.94 67.4291 12.444 67.4291 13.596Z" fill="black"/>
</g>
<defs>
<clipPath id="clip0_2_3">
<rect width="87" height="30" fill="white"/>
</clipPath>
</defs>
</svg>
